<svg width="20" height="20" viewBox="0 0 20 20" fill="none" xmlns="http://www.w3.org/2000/svg">
<path d="M6 20C2.691 20 0 17.309 0 14C0 10.691 2.691 8 6 8C6.467 8 6.931 8.06 7.405 8.181L15.293 0.293001C15.3857 0.199958 15.4959 0.126171 15.6172 0.0758855C15.7386 0.0256002 15.8687 -0.000189449 16 1.04767e-06H19C19.2652 1.04767e-06 19.5196 0.105358 19.7071 0.292894C19.8946 0.480431 20 0.734785 20 1V7C20 7.26522 19.8946 7.51957 19.7071 7.70711C19.5196 7.89464 19.2652 8 19 8H17V11C17 11.2652 16.8946 11.5196 16.7071 11.7071C16.5196 11.8946 16.2652 12 16 12H12.414L11.819 12.595C11.94 13.069 12 13.533 12 14C12 17.309 9.309 20 6 20ZM7 14C7 14.2652 6.89464 14.5196 6.70711 14.7071C6.51957 14.8946 6.26522 15 6 15C5.73478 15 5.48043 14.8946 5.29289 14.7071C5.10536 14.5196 5 14.2652 5 14C5 13.7348 5.10536 13.4804 5.29289 13.2929C5.48043 13.1054 5.73478 13 6 13C6.26522 13 6.51957 13.1054 6.70711 13.2929C6.89464 13.4804 7 13.7348 7 14ZM6 10C3.794 10 2 11.794 2 14C2 16.206 3.794 18 6 18C8.206 18 10 16.206 10 14C10 13.566 9.917 13.125 9.746 12.651C9.68172 12.4724 9.66958 12.2792 9.71102 12.094C9.75246 11.9088 9.84575 11.7392 9.98 11.605L11.293 10.293C11.3857 10.2 11.4959 10.1262 11.6172 10.0759C11.7386 10.0256 11.8687 9.99981 12 10H15V7C15 6.73478 15.1054 6.48043 15.2929 6.29289C15.4804 6.10536 15.7348 6 16 6H18V2H16.414L8.395 10.02C8.2605 10.1537 8.0909 10.2467 7.9058 10.2881C7.7207 10.3295 7.52766 10.3177 7.349 10.254C6.91769 10.0909 6.46108 10.005 6 10Z" fill="#00003C"/>
</svg>
