<?xml version="1.0" encoding="UTF-8"?>
<svg width="57px" height="88px" viewBox="0 0 57 88" version="1.1" xmlns="http://www.w3.org/2000/svg" xmlns:xlink="http://www.w3.org/1999/xlink">
    <!-- Generator: Sketch Beta 52.2 (67145) - http://www.bohemiancoding.com/sketch -->
    <title>logo_safra_vertical</title>
    <desc>Created with Sketch Beta.</desc>
    <g id="App-Cliente-(maior)---fluxo-feliz" stroke="none" stroke-width="1" fill="none" fill-rule="evenodd">
        <g id="25.0" transform="translate(-159.000000, -90.000000)" fill="#FFFFFF" fill-rule="nonzero">
            <path d="M169.525315,164.674383 C169.574657,163.260153 168.393969,161.948454 165.916286,161.898956 C164.154065,161.874207 162.864119,162.47879 162.744288,163.924841 C162.649128,165.130473 163.057963,165.370892 163.850963,165.692629 C164.259798,166.127505 167.579823,166.657842 168.252991,166.778051 C169.215164,166.947759 171.284011,167.382635 172.390686,168.517555 C174.410191,170.638901 173.47269,174.814417 171.284011,176.235719 C169.793172,177.200932 167.759569,177.441351 165.799979,177.4661 C164.91182,177.487313 162.79363,177.176183 161.496636,176.235719 C160.044811,175.165133 159.141176,173.503665 159.029526,171.699574 L162.553968,171.699574 C162.561005,172.37706 162.828704,173.025621 163.30115,173.50979 C164.094149,174.330043 165.394668,174.598747 166.592979,174.549249 C167.791289,174.499751 168.926159,174.163871 169.384337,173.728995 C169.787514,173.34618 170.021992,172.817968 170.035882,172.261251 C170.049773,171.704534 169.841931,171.165217 169.45835,170.762646 C168.305858,169.553479 164.841331,169.553479 162.578639,168.782723 C160.678965,168.132177 159.117637,166.756838 159.406641,163.910699 C159.695646,161.064559 161.715151,159.038674 165.997348,159.038674 C166.93485,159.038674 170.205532,159.109386 171.914886,161.28023 C172.827717,162.461112 173.067379,164.108691 172.922877,164.681454 L169.525315,164.674383 Z M183.12689,177.262486 C182.871489,176.878777 182.747756,176.421999 182.774446,175.961394 C181.597282,177.071565 180.561096,177.817571 178.590933,177.817571 C175.947601,177.817571 174.647082,176.322022 174.742242,173.787014 C174.816255,171.95205 175.535241,170.166583 178.516919,169.660996 C179.668067,169.60696 180.807544,169.404961 181.907433,169.059948 C182.487702,168.817452 182.833212,168.214161 182.749774,167.589148 C182.749774,166.768894 182.076606,166.40473 180.536425,166.40473 C178.612079,166.40473 178.372417,167.589148 178.323075,168.526076 L175.151077,168.526076 C175.200419,164.35056 178.760106,163.965182 180.539949,163.965182 C181.587015,163.941276 182.629994,164.104083 183.620312,164.44602 C184.917306,164.979892 185.953492,166.040565 185.953492,168.112413 L185.953492,175.254278 C185.959861,175.858077 186.22894,176.428933 186.690101,176.817003 L186.690101,177.276628 L183.12689,177.262486 Z M182.742726,171.110582 C181.780553,171.690417 180.483558,171.640919 179.616545,171.817698 C178.583884,172.012154 177.854324,172.878371 178.150377,173.939044 C178.344222,174.709799 178.943377,175.264885 180.384874,175.024466 C182.383232,174.709799 182.742726,173.313247 182.742726,171.86366 L182.742726,171.110582 Z M187.023228,164.046027 L188.852413,164.046027 L188.852413,162.787361 C188.852413,160.832187 189.839257,159.531095 192.024411,159.531095 L194.11793,159.531095 L194.11793,162.041355 L192.940766,162.041355 C192.482588,162.041355 192.235877,162.327736 192.235877,162.93232 L192.235877,164.046027 L194.202516,164.046027 L194.202516,166.291118 L192.207682,166.291118 L192.207682,177.117054 L188.838315,177.117054 L188.838315,166.291118 L187.00913,166.291118 L187.023228,164.046027 Z M195.844794,164.21476 L199.210636,164.21476 L199.210636,166.749768 L199.259979,166.749768 C199.478494,165.975477 199.644143,165.519388 200.824831,164.699134 C201.488068,164.128865 202.363293,163.87139 203.2285,163.992018 L203.2285,167.442741 C201.783479,167.273034 199.622996,167.089184 199.210636,169.917645 L199.210636,177.27518 L195.844794,177.27518 L195.844794,164.21476 Z M212.088246,177.262398 C211.832845,176.878689 211.709112,176.421911 211.735802,175.961305 C210.558638,177.071477 209.522452,177.817483 207.552289,177.817483 C204.905433,177.817483 203.608438,176.321934 203.703598,173.786926 C203.777611,171.951961 204.496598,170.166495 207.478276,169.660908 C208.629432,169.60695 209.768918,169.404949 210.868789,169.05986 C211.449058,168.817363 211.794568,168.214073 211.711131,167.58906 C211.711131,166.768806 211.037962,166.404642 209.497781,166.404642 C207.573436,166.404642 207.333773,167.58906 207.284431,168.525988 L204.112433,168.525988 C204.161776,164.350472 207.717938,163.965094 209.501305,163.965094 C210.547187,163.941683 211.588923,164.104482 212.578143,164.445932 C213.875138,164.979804 214.911324,166.040477 214.911324,168.112325 L214.911324,175.25419 C214.926429,175.852247 215.198931,176.414446 215.658506,176.795702 L215.658506,177.255326 L212.088246,177.262398 Z M211.704082,171.110494 C210.741909,171.690329 209.444914,171.640831 208.577902,171.81761 C207.54524,172.012066 206.81568,172.878283 207.111734,173.938956 C207.305578,174.709711 207.904733,175.264797 209.349754,175.024378 C211.344589,174.709711 211.704082,173.313158 211.704082,171.863572 L211.704082,171.110494 Z M212.992686,129.903427 C212.530909,133.786404 210.918045,137.439666 208.363966,140.38784 C207.084135,141.816947 206.077336,143.147348 201.508341,146.271643 C195.569928,149.580477 190.314092,151.786367 187.251031,154.176796 C184.18797,151.786367 178.9364,149.580477 172.993721,146.271643 C168.424726,143.147348 167.447789,141.816947 166.138096,140.38784 C163.588303,137.439971 161.979854,133.788103 161.522174,129.907718 C161.033588,125.440776 162.638736,120.999427 165.865065,117.891199 C166.824938,116.788255 166.185023,116.234636 165.72855,115.363439 C164.909459,113.797 164.72175,113.110341 163.352332,110.398041 C162.618562,108.947476 162.247412,107.887447 162.439386,106.96475 C163.121962,104.484197 165.72855,103.531459 166.641496,102.411348 C166.803608,102.213933 167.136364,102.09806 167.234484,101.904937 C167.332567,101.687881 167.349237,101.442446 167.281411,101.213987 C167.281411,101.213987 166.261813,99.2312617 166.364199,98.9179739 C166.577504,98.282815 170.020248,96.3902132 172.852939,95.2400607 C175.589708,94.2370912 178.381493,93.3931139 181.214498,92.7123 C183.376596,92.1969164 185.422966,91.2768032 187.246765,90 C189.070211,91.2774303 191.116704,92.1975985 193.279032,92.7123 C196.112019,93.3931778 198.903801,94.237154 201.64059,95.2400607 C204.473281,96.3902132 207.916025,98.282815 208.12933,98.9179739 C208.235983,99.2312617 207.220651,101.209696 207.216385,101.213987 C207.147772,101.442357 207.16446,101.688077 207.263312,101.904937 C207.361432,102.09806 207.689922,102.213933 207.8563,102.411348 C208.773511,103.527167 211.375833,104.479906 212.062676,106.96475 C212.250384,107.900322 211.879233,108.964642 211.145464,110.398041 C209.776045,113.110341 209.588337,113.797 208.769245,115.363439 C208.312773,116.221761 207.672857,116.788255 208.63273,117.891199 C211.864048,120.995225 213.475554,125.435128 212.992686,129.903427 Z M211.350237,128.894898 C211.393192,125.044799 209.876015,121.343062 207.148127,118.642232 C205.441686,117.080084 206.188254,116.741047 206.721517,115.698185 C207.544874,114.136037 207.404093,114.14462 208.777778,111.239198 C209.400628,109.925964 210.514081,108.067695 210.104535,106.827418 C209.601135,105.720182 207.118264,104.033578 206.951886,103.930579 C206.243765,103.478332 205.574496,102.967278 204.951085,102.402764 C204.656724,101.922104 204.998012,101.668898 204.998012,101.668898 C204.998012,101.668898 206.064537,99.9522528 205.910958,99.6432566 C205.0876,98.0811091 197.276369,95.5061407 192.933478,94.4933198 C190.847354,94.0083675 187.268095,92.012767 187.268095,92.012767 C187.268095,92.012767 183.688836,94.0083675 181.602713,94.4933198 C177.259822,95.5018491 169.448591,98.0768175 168.620967,99.6432566 C168.467387,99.9350864 169.533913,101.668898 169.533913,101.668898 C169.533913,101.668898 169.875201,101.922104 169.58084,102.402764 C168.954305,102.964604 168.282187,103.472783 167.571506,103.921996 C167.422192,104.024995 164.922257,105.711599 164.418857,106.818835 C163.992247,108.059112 165.122764,109.917381 165.745615,111.230614 C167.119299,114.136037 166.978518,114.127454 167.801875,115.689601 C168.352202,116.732464 169.081706,117.067209 167.375265,118.633649 C164.645811,121.333757 163.127057,125.035586 163.16889,128.886314 C163.446186,133.02343 164.768677,136.469596 168.791611,140.791252 C170.071441,142.220359 171.897333,143.735299 176.51752,146.215852 C180.856145,148.468949 184.055721,149.799349 187.20837,152.146862 C190.361019,149.799349 193.650183,148.468949 197.993074,146.215852 C202.608995,143.735299 204.417822,142.220359 205.714717,140.791252 C209.746183,136.478179 211.068674,133.032013 211.350237,128.894898 Z M208.374427,130.244381 C208.691704,130.566114 208.809953,131.034666 208.683394,131.468642 C208.640482,131.838068 207.85519,131.881024 207.949596,131.19372 C208.044003,130.506416 207.121392,130.734086 206.984073,131.425685 C206.908659,131.995235 206.892838,132.571108 206.93687,133.143946 C206.925056,135.866212 204.717163,138.066787 201.997682,138.066761 C201.602081,138.069658 201.207491,138.02641 200.821889,137.937892 C200.379894,137.834796 200.135295,138.616604 199.76625,139.260952 C199.76625,139.260952 201.323961,139.883821 201.139439,141.047943 C200.954917,142.212064 199.899278,142.796272 199.118277,141.782499 C198.796436,141.365821 199.350003,141.322864 199.946481,141.322864 C200.397059,141.000691 200.354147,140.446552 199.255596,140.218882 C197.908154,139.939665 196.710906,142.796272 196.251746,143.990463 C195.792586,145.184654 193.247896,148.500896 189.814924,147.714792 C189.583198,147.663245 187.514833,150.799069 187.514833,150.799069 C187.514833,150.799069 185.446468,147.663245 185.214742,147.714792 C181.78177,148.500896 179.254245,145.184654 178.77792,143.990463 C178.301596,142.796272 177.108638,139.94396 175.77407,140.218882 C174.658354,140.463734 174.632607,141.000691 175.087476,141.322864 C175.683955,141.322864 176.237521,141.352934 175.91568,141.782499 C175.134679,142.796272 174.079041,142.199177 173.894518,141.047943 C173.709996,139.896708 175.229086,139.299613 175.229086,139.299613 C174.860042,138.655265 174.602569,137.873457 174.173447,137.976553 C173.787845,138.065071 173.393255,138.108319 172.997654,138.105422 C170.538789,138.105422 168.42322,136.266884 167.96406,133.320067 C167.908274,132.959233 168.195785,132.538259 168.011263,131.477233 C167.873944,130.785633 166.947042,130.510712 167.04574,131.245268 C167.144438,131.979824 166.359146,131.889616 166.311942,131.52019 C166.183788,131.078604 166.307289,130.602222 166.633783,130.278747 C167.062905,129.866364 168.208659,130.192834 168.350269,130.416207 C168.771432,128.961757 169.641055,127.677775 170.834882,126.747722 C170.839257,126.593741 170.79247,126.44266 170.701855,126.318157 C170.427217,126.163513 169.998096,126.262313 169.139853,125.888592 C168.818012,125.751131 168.543374,127.177287 167.303213,126.992574 C166.419223,126.859409 166.427805,125.935844 166.934168,126.026053 C167.092943,125.965913 167.298922,126.356818 167.487735,126.395479 C168.131417,126.532939 168.221533,125.583601 168.221533,125.154036 C168.221533,124.969323 167.85678,123.813793 168.131417,123.03628 C168.479006,122.056871 169.573265,121.524211 170.062464,121.197741 C170.195491,121.12042 170.440091,120.549098 170.152579,120.338611 C169.44882,119.831724 170.779097,119.37209 171.010822,120.523324 C171.135267,121.15908 170.877795,121.326611 170.916415,121.674559 C170.963619,122.086941 172.208071,122.933184 171.191053,123.69781 C170.637487,124.114488 170.470129,123.435775 170.731893,123.100715 C171.238257,122.456367 168.942457,121.489846 168.84805,123.929775 C168.809429,124.943549 170.478712,125.403183 170.847756,125.540644 C173.649919,125.540644 175.924263,122.83868 175.924263,119.526733 C175.924263,116.96223 174.529618,114.74997 172.615736,113.89084 C171.834735,113.014527 168.616325,113.151988 168.753643,111.773084 C168.84805,110.832336 169.76637,110.351224 170.272733,110.853815 C170.500168,111.313449 169.719167,111.390771 169.76637,111.820336 C169.813573,112.249901 170.573118,112.361588 171.100938,112.005049 C171.382798,111.785108 171.542349,111.443316 171.530059,111.08578 C171.594427,110.42425 171.126685,109.852928 170.564536,109.36752 C169.799015,108.754602 168.947333,108.258118 168.037011,107.894111 C168.037011,107.894111 171.070899,106.95766 171.161015,106.09853 C171.238257,105.351086 170.886377,105.239399 170.564536,105.668964 C170.375722,105.930999 169.830738,105.40693 170.47442,104.809834 C170.980784,104.491956 171.731746,104.766878 171.946307,105.548686 C172.160868,106.330495 175.010234,102.881087 175.379279,101.867314 C175.55951,101.37761 175.374987,100.29081 174.7828,100.48841 C174.366552,100.625871 174.460959,100.900792 174.598277,101.085505 C174.670963,101.204137 174.681732,101.350667 174.627174,101.478671 C174.572616,101.606674 174.45949,101.700288 174.32364,101.729853 C173.880045,101.689729 173.540832,101.316581 173.542639,100.870723 C173.495435,99.7839232 175.611004,98.9247931 176.16028,100.643053 C176.276142,100.995297 176.576527,100.505592 176.803962,100.32088 C177.318907,99.9127927 180.485824,96.1369158 184.71267,96.0896637 C186.330458,96.0724811 185.588078,96.4762722 186.369079,96.4118375 C186.922645,96.3645853 187.381805,95.5398204 187.519124,95.3078553 C187.75085,95.5827769 188.115603,96.3645853 188.66917,96.4118375 C189.467336,96.4762722 188.712082,96.0896637 190.325578,96.0896637 C194.552425,96.1326202 197.719341,99.8913144 198.229996,100.32088 C198.444556,100.505592 198.757815,100.995297 198.873678,100.643053 C199.422953,98.93768 201.538522,99.7667406 201.491319,100.870723 C201.493126,101.316581 201.153912,101.689729 200.710317,101.729853 C200.574467,101.700288 200.461342,101.606674 200.406783,101.478671 C200.352225,101.350667 200.362994,101.204137 200.43568,101.085505 C200.572999,100.917975 200.680279,100.625871 200.251158,100.48841 C199.654679,100.286514 199.478739,101.37761 199.654679,101.867314 C200.006558,102.881087 202.860216,106.321903 203.08765,105.548686 C203.315085,104.775469 204.053174,104.487661 204.559537,104.809834 C205.20751,105.394043 204.658235,105.913817 204.469421,105.668964 C204.14758,105.269469 203.795701,105.363973 203.872943,106.09853 C203.963058,106.974842 206.996947,107.894111 206.996947,107.894111 C206.996947,107.894111 203.319376,109.225763 203.503898,111.068597 C203.490899,111.426278 203.650593,111.768378 203.93302,111.987866 C204.456548,112.344405 205.216093,112.262788 205.263296,111.803154 C205.310499,111.343519 204.525207,111.296267 204.756933,110.836632 C205.259005,110.329745 206.177325,110.815154 206.271731,111.755901 C206.40905,113.134805 203.190639,113.014527 202.409638,113.873657 C200.495757,114.732787 199.101112,116.93216 199.101112,119.509551 C199.101112,122.834384 201.371165,125.523461 204.177619,125.523461 C204.546663,125.386001 206.215946,124.926366 206.177325,123.912593 C206.082918,121.472663 203.787118,122.439184 204.293482,123.083532 C204.555246,123.414297 204.387888,124.110192 203.834322,123.680627 C202.821595,122.916002 204.061756,122.086941 204.108959,121.657376 C204.14758,121.309428 203.890107,121.141898 204.018844,120.506142 C204.233405,119.354907 205.567972,119.814542 204.877087,120.321429 C204.585284,120.519029 204.829883,121.09035 204.967202,121.180559 C205.452109,121.502733 206.55066,122.043984 206.898249,123.019097 C207.168595,123.79661 206.803842,124.95214 206.803842,125.136853 C206.803842,125.549235 206.898249,126.515757 207.541931,126.378296 C207.730744,126.335339 207.941014,125.957322 208.095498,126.00887 C208.584696,125.918661 208.606152,126.842226 207.726453,126.975391 C206.490583,127.155809 206.396177,125.751131 205.937017,125.961618 C205.340538,126.236539 204.589575,126.142035 204.327811,126.283792 C204.2369,126.408146 204.190081,126.559332 204.194784,126.713357 C205.388178,127.643816 206.257697,128.927645 206.679397,130.381842 C206.821007,130.158468 207.945305,129.814816 208.374427,130.244381 Z M186.956975,99.7839232 L186.956975,99.7796275 C186.802491,99.9987057 187.703646,100.204897 188.059817,99.921384 C188.287252,99.736671 187.755141,99.4488624 187.600657,98.8174018 C187.510542,98.4479758 187.386097,99.1868277 186.956975,99.7839232 Z M187.510542,149.24834 L188.707791,147.50001 L187.510542,145.841889 L186.317584,147.50001 L187.510542,149.24834 Z M206.203072,133.002189 C206.490583,129.368069 204.284899,127.160104 202.23799,126.043235 C199.985102,125.085305 198.375897,122.559463 198.375897,119.599759 C198.375897,116.446752 200.032306,114.011118 202.69715,112.907136 C203.418074,112.430318 203.061903,112.322927 202.834469,111.803154 C202.769752,111.563825 202.739409,111.31649 202.744353,111.068597 C202.675694,110.209467 202.761518,110.639032 202.834469,110.209467 C202.968931,109.987417 203.033247,109.729884 203.018991,109.470615 C202.847342,107.722285 201.027867,108.456842 200.873384,109.148441 C200.7189,109.840041 200.980664,109.767015 201.148021,109.93025 C201.929022,109.651033 201.654385,110.153624 201.607181,110.29538 C201.465571,110.707763 201.010703,110.853815 200.457136,110.480093 C199.997976,110.342632 199.809162,109.659624 199.676135,109.698285 C198.796436,109.951728 198.38877,108.963728 198.757815,108.916476 C199.126859,108.869224 199.586019,109.346041 199.90786,108.916476 C201.023576,107.494616 202.761518,107.623485 203.169183,108.177624 C203.795701,109.053937 204.224822,108.731763 204.224822,108.731763 C204.224822,108.731763 205.095939,108.091711 205.005823,108.040164 C203.33225,107.120894 202.920293,106.811608 200.714609,104.638008 C199.753377,103.52973 197.427538,100.436862 196.809604,99.9428623 C194.775568,98.3319933 190.973552,95.5269335 188.767868,97.2752632 C187.888169,97.9711586 188.214301,98.7486714 188.536142,99.023593 C188.888022,99.3887233 189.154077,98.1258021 189.317143,98.1945325 C189.83638,98.2847411 189.068253,99.1138017 189.407259,99.4832276 C189.746265,99.8526536 190.364199,99.4059059 190.325578,99.023593 C190.248337,98.1472803 192.256625,99.8054014 189.819215,100.497001 C189.317143,100.643053 189.330017,100.299401 188.960972,100.35954 C188.591928,100.419679 188.132768,100.879314 187.489086,100.789105 C186.845404,100.866427 186.369079,100.406793 186.017199,100.35954 C185.66532,100.312288 185.678193,100.643053 185.158956,100.497001 C182.721546,99.8054014 184.742708,98.1644629 184.652593,99.023593 C184.613972,99.4059059 185.20616,99.8483579 185.570913,99.4832276 C185.935666,99.1180973 185.154665,98.2847411 185.661028,98.1945325 C185.824095,98.1258021 186.077276,99.3887233 186.442029,99.023593 C186.76387,98.7486714 187.072838,97.9711586 186.214595,97.2752632 C184.008911,95.5269335 180.194021,98.3319933 178.168568,99.9428623 C177.550633,100.436862 175.229086,103.534026 174.263563,104.638008 C172.045005,106.811608 171.397031,107.258355 169.972348,108.040164 C169.882233,108.091711 170.706146,108.684511 170.706146,108.684511 C170.706146,108.684511 171.212509,109.281607 171.808988,108.177624 C172.13512,107.571938 173.967469,107.494616 175.070311,108.916476 C175.396443,109.346041 175.851312,108.87352 176.220357,108.916476 C176.589401,108.959433 176.16028,109.951728 175.302037,109.698285 C175.164718,109.659624 174.975904,110.342632 174.516744,110.480093 C173.963178,110.853815 173.504018,110.724945 173.366699,110.29538 C173.319496,110.153624 173.044858,109.655328 173.825859,109.93025 C173.993216,109.771311 174.220651,109.827154 174.100497,109.148441 C173.980343,108.469729 172.139412,107.722285 171.954889,109.470615 C171.940633,109.729884 172.004949,109.987417 172.139412,110.209467 C172.233818,110.617554 172.302478,110.209467 172.233818,111.068597 C172.235963,111.316614 172.2042,111.563757 172.139412,111.803154 C171.911977,112.322927 171.555806,112.426023 172.27673,112.907136 C174.941575,114.015414 176.597983,116.442456 176.597983,119.599759 C176.597983,122.550871 174.99736,125.072418 172.73589,126.043235 C170.727602,127.160104 168.521918,129.368069 168.796556,133.002189 C168.779893,135.371307 170.682514,137.306645 173.049149,137.327909 C174.050031,137.327958 175.017978,136.969935 175.778361,136.318431 C176.36185,135.682582 176.690379,134.853529 176.700973,133.990189 C176.700973,132.332068 175.45652,130.983233 174.036128,130.983233 C173.851606,131.112103 173.619881,130.888729 173.298039,131.902503 C172.886083,132.08292 172.83888,131.743564 172.83888,131.348364 C172.83888,130.704016 173.525474,130.429094 174.353678,130.106921 C174.963031,129.87066 174.263563,128.453095 175.366405,128.543304 C176.143115,128.607739 176.147406,128.78386 176.05729,129.140399 C175.967175,129.496938 175.641043,129.166173 175.460812,129.27786 C174.842877,129.64299 175.70112,130.691129 175.70112,130.691129 C176.659572,131.513886 177.224184,132.705169 177.254539,133.968711 C177.252823,134.753431 177.064542,135.526473 176.705264,136.223927 C176.276142,136.735109 175.812691,136.975666 175.417899,137.405231 C175.183245,138.131992 175.455989,138.926569 176.087329,139.355456 C176.640896,139.815091 177.190171,139.217996 179.031102,142.439733 C179.125509,142.607264 179.443059,141.945734 180.133944,141.705177 C180.549768,141.551939 181.012886,141.598606 181.389857,141.831731 C181.766829,142.064856 182.015784,142.458548 182.064991,142.899368 C182.150815,144.00335 181.052264,143.449211 180.777626,142.529942 C180.421456,142.31516 180.099614,142.718951 179.855015,143.17429 C179.533174,143.797159 180.22406,145.292045 182.107903,146.486236 C183.811515,147.542966 186.841112,147.040375 186.750997,145.012828 C186.682337,143.50935 184.635428,143.169994 184.910066,144.368481 C185.081714,145.09015 183.163542,145.193245 184.086153,143.629629 C185.008764,142.066012 187.120041,143.444916 187.489086,144.368481 C187.85813,143.444916 189.973699,142.061716 190.892019,143.629629 C191.810339,145.197541 189.896457,145.09015 190.063814,144.368481 C190.338452,143.17429 188.291543,143.517942 188.222883,145.012828 C188.145642,147.040375 191.149492,147.542966 192.865977,146.486236 C194.749821,145.292045 195.45358,143.797159 195.118865,143.17429 C194.878557,142.718951 194.556716,142.297977 194.200545,142.529942 C193.925907,143.449211 192.831648,144.00335 192.913181,142.899368 C192.963982,142.459332 193.213244,142.066798 193.589706,141.833987 C193.966169,141.601177 194.428391,141.553717 194.844227,141.705177 C195.517948,141.945734 195.852663,142.607264 195.947069,142.439733 C197.788,139.217996 198.341567,139.815091 198.890843,139.355456 C199.523779,138.927774 199.798356,138.132951 199.564563,137.405231 C199.093118,137.041183 198.6806,136.606506 198.341567,136.116536 C197.970662,135.460033 197.76588,134.722645 197.745088,133.968711 C197.773822,132.705717 198.336921,131.514336 199.294217,130.691129 C199.294217,130.691129 200.135295,129.64299 199.534525,129.27786 C199.367167,129.166173 199.079656,129.552782 198.938046,129.140399 C198.796436,128.728017 199.028161,128.4488 199.62464,128.496052 C200.551543,128.569078 200.028014,129.87066 200.637367,130.106921 C201.465571,130.429094 202.156457,130.704016 202.156457,131.348364 C202.156457,131.743564 202.126418,132.087216 201.697297,131.902503 C201.392621,130.893025 201.148021,131.116399 200.963499,130.983233 C199.543107,130.983233 198.298655,132.323476 198.298655,133.990189 C198.309249,134.853529 198.637777,135.682582 199.221266,136.318431 C199.981455,136.970267 200.949529,137.328337 201.950478,137.327909 C204.317113,137.306645 206.219734,135.371307 206.203072,133.002189 Z M195.442072,121.266633 C196.972851,124.246695 196.060438,127.771315 193.418331,129.289218 C192.981583,132.337886 189.881108,134.820556 188.073579,134.863435 C188.073579,134.863435 187.671425,136.681487 190.343801,138.448085 C192.012955,139.550065 189.695166,139.275642 188.955722,138.816841 C188.549244,138.563857 187.05306,137.714861 186.590367,137.071682 C186.17524,137.714861 185.362284,138.075041 184.670407,138.529554 C184.084582,138.905136 183.400459,139.101938 182.702881,139.095552 C180.98616,139.095552 179.598081,137.984996 179.598081,136.612881 C179.627722,135.793402 180.086815,135.048774 180.808867,134.649042 C181.198654,134.527006 181.616892,134.527006 182.006679,134.649042 C182.516939,135.61381 180.800218,135.245054 181.49642,136.668623 C181.639119,137.543347 182.56883,137.569074 183.628267,137.397559 C184.609582,136.988644 185.362621,136.176192 185.690926,135.17216 C185.751465,134.979207 185.029318,134.89345 184.324468,134.464664 C183.6316,133.991114 183.043107,133.38277 182.594775,132.676626 C180.406713,133.79147 178.893231,132.539415 178.845665,131.390269 C178.659723,130.931468 179.243494,130.288289 179.4943,130.103911 C180.173204,129.597944 180.359146,130.193956 180.359146,130.193956 C180.19915,130.374046 180.082395,130.412637 180.082395,130.674196 C180.057642,131.050665 180.246145,131.409528 180.571434,131.605208 C180.896724,131.800887 181.304781,131.800887 181.63007,131.605208 C181.95536,131.409528 182.143863,131.050665 182.119109,130.674196 C182.134776,130.253773 181.871477,129.872589 181.470474,129.735155 C180.754245,128.898074 179.706221,128.411336 178.599183,128.401631 C178.104061,128.345584 177.609883,128.514176 177.254347,128.860432 C176.648954,129.409278 176.004643,128.860432 176.696521,128.307298 C178.287839,127.046667 178.132166,126.150505 178.132166,125.412993 C178.13444,124.616969 177.90957,123.836545 177.483531,123.161867 C177.020838,122.428643 177.375425,122.381476 177.807849,122.381476 C178.119194,122.381476 179.061876,124.130923 180.31158,126.103338 C180.592415,126.464513 180.901858,126.802897 181.236966,127.115273 C182.305051,128.401631 182.209918,127.389696 182.209918,127.389696 L182.209918,118.205102 C179.909426,117.377545 178.750532,115.70528 178.750532,113.818622 C178.750532,112.03916 180.125638,110.426925 181.855331,109.530762 C181.877979,108.712314 181.243673,108.02272 180.419686,107.969982 C179.628351,107.969982 179.4943,108.703206 179.866184,109.162007 C179.866184,109.333521 180.021856,109.543626 179.866184,109.667974 C179.468354,109.985275 178.862962,109.667974 178.862962,109.667974 C178.461897,109.347547 178.225703,108.866558 178.218651,108.355889 C178.218651,107.296788 179.083498,106.173369 180.744003,106.379186 C181.561187,106.474785 182.291645,106.929843 182.733151,107.618377 C183.29022,106.825159 184.084259,106.225266 185.003373,105.903234 C184.620253,105.356252 184.156753,104.86919 183.628267,104.458225 C183.019437,104.119744 182.373892,103.850752 181.703983,103.656395 C181.531014,103.514896 181.621823,102.460083 182.642342,103.150428 C183.640679,103.461717 184.659228,103.705258 185.690926,103.879364 C186.320852,103.984585 186.961953,104.007649 187.597913,103.94797 C188.367209,103.891771 189.121496,103.707684 189.829217,103.403412 C190.939217,102.913696 192.128101,102.623331 193.340495,102.54584 C193.526437,102.54584 193.483195,102.807399 193.249686,103.236185 C192.558055,103.310033 191.883236,103.495423 191.25189,103.785031 C189.777327,104.376756 188.756808,105.302933 188.480057,105.993279 C190.46488,106.473519 191.567559,108.257268 191.999983,109.11484 C191.999983,109.11484 192.786993,109.389263 193.344819,108.287283 C193.902645,107.185303 194.110208,108.317298 193.902645,108.746084 C193.813361,109.313472 193.797377,109.889832 193.855079,110.461228 C193.902645,110.782817 194.361014,112.493673 194.828031,112.849565 C195.4291,113.308366 194.732898,114.028727 194.13183,113.171155 C193.595625,112.395052 192.942665,112.022009 192.756723,112.15922 C192.811148,112.441893 192.838655,112.729013 192.838884,113.016792 C192.843763,114.637155 192.394646,116.227016 191.541614,117.609089 L191.450805,117.930679 C193.190095,118.445906 194.635583,119.654063 195.442072,121.266633 Z M182.235864,116.18552 L182.235864,111.365966 C181.314802,112.026296 180.661843,112.965338 180.661843,113.844349 C180.661843,114.72336 181.076969,115.589507 182.235864,116.18552 Z M186.002271,107.322515 C185.078722,107.350202 184.268341,107.940505 183.965557,108.806114 C184.631867,108.646529 185.317413,108.580139 186.002271,108.608873 L186.002271,107.322515 Z M186.002271,110.143926 C185.336256,110.184598 184.677352,110.302606 184.039069,110.495531 L184.039069,116.357034 C184.101954,116.5626 184.264183,116.723465 184.471492,116.78582 C184.973482,116.897732 185.490458,116.928142 186.002271,116.875865 L186.002271,110.143926 Z M186.002271,133.238336 L186.002271,131.248769 C185.392831,131.239038 184.787597,131.146708 184.20339,130.974346 C184.290663,132.018523 184.998892,132.909868 186.002271,133.238336 Z M186.002271,129.186309 L186.002271,121.056528 L184.06069,121.056528 L184.06069,128.264419 C184.140735,128.535744 184.302107,128.776512 184.523383,128.954765 C185.085533,129.379263 186.002271,129.469308 186.002271,129.186309 Z M186.049837,119.495747 L186.049837,118.621024 C185.398622,118.624572 184.748088,118.578701 184.103932,118.483812 L184.103932,119.495747 L186.049837,119.495747 Z M188.090876,107.549771 L188.090876,108.686054 C188.46276,108.608873 189.941647,109.11484 190.036781,109.11484 C189.674815,108.316931 188.952925,107.736324 188.090876,107.549771 Z M188.090876,110.178229 L188.112497,117.201743 C188.263845,117.223182 188.583838,117.26606 188.947074,117.338954 C189.310309,117.411848 189.690842,117.493317 189.81192,117.154576 C190.551364,116.189808 190.936221,115.285069 191.061624,113.02108 C191.096218,112.133493 191.048651,111.340239 190.784873,110.954332 C190.568661,110.641318 189.716787,110.538409 189.349227,110.401198 C188.562217,110.358319 188.648702,110.178229 188.090876,110.178229 Z M188.142766,133.139715 L188.121145,133.135427 C189.6476,132.642324 190.897303,131.390269 190.966491,130.704211 C190.066447,131.055448 189.109892,131.242825 188.142766,131.257345 L188.142766,133.139715 Z M191.247566,128.590297 L191.221621,128.590297 C191.822689,128.307298 191.744853,127.252485 191.753501,126.888016 C191.615126,122.711642 188.0952,121.699707 188.0952,121.699707 L188.0952,129.237763 C188.0952,129.430717 188.142766,129.280642 189.254094,129.327808 C189.963827,129.224994 190.643368,128.973589 191.247566,128.590297 Z M193.409683,126.394913 L193.401034,126.390625 C194.395608,125.503038 194.555604,123.307654 193.543734,121.905524 C192.471324,120.014578 190.20975,118.994068 189.2195,119.791609 C189.118905,119.844382 189.030534,119.917405 188.960046,120.006002 C189.889757,120.233259 191.442156,121.429572 192.397812,123.144715 C192.95857,124.108652 193.291253,125.186274 193.370764,126.296292 L193.409683,126.394913 Z" id="logo_safra_vertical"></path>
        </g>
    </g>
</svg>