<svg width="180" height="193" viewBox="0 0 180 193" fill="none" xmlns="http://www.w3.org/2000/svg">
<path d="M110.825 82.2519C107.843 82.2519 105.897 80.5608 105.897 78.0214C105.897 75.9062 107.342 74.2124 109.041 74.2124C109.719 74.2124 110.316 74.4663 110.316 75.1444C110.316 75.5658 110.145 75.9062 110.571 75.9062C110.825 75.9062 111.08 75.6522 111.08 74.9742C111.08 74.1286 110.316 73.4505 109.212 73.4505H108.955C109.07 73.2131 109.128 72.9524 109.126 72.6887C109.13 72.5319 109.102 72.3758 109.043 72.2301C108.985 72.0844 108.897 71.952 108.786 71.841C108.675 71.7301 108.542 71.6429 108.396 71.5847C108.249 71.5266 108.093 71.4987 107.935 71.5028C107.342 71.5028 106.745 71.8432 106.745 72.2673C106.741 72.3019 106.744 72.337 106.755 72.37C106.767 72.4029 106.786 72.4328 106.811 72.4572C106.836 72.4816 106.866 72.4998 106.899 72.5105C106.933 72.5211 106.968 72.5239 107.003 72.5185C107.255 72.5185 107.342 72.2673 107.765 72.2673C107.845 72.2589 107.926 72.2683 108.002 72.295C108.078 72.3218 108.147 72.365 108.204 72.4217C108.261 72.4784 108.305 72.547 108.332 72.6226C108.359 72.6983 108.369 72.779 108.361 72.8589C108.361 73.4505 107.851 73.7045 107.426 73.9584C106.718 74.3719 106.134 74.9647 105.731 75.6764C105.328 76.3882 105.121 77.1935 105.132 78.0106C105.132 80.3798 106.488 81.9034 108.445 82.5788L107.171 84.5266C105.471 84.5266 104.622 85.7963 103.104 88.5031C103.033 88.1561 102.84 87.8458 102.56 87.6283C102.279 87.4108 101.93 87.3004 101.575 87.3172C100.64 87.3172 100.043 87.9953 100.043 88.9381C100.033 89.0385 100.063 89.1388 100.127 89.2176C100.19 89.2963 100.282 89.3473 100.382 89.3595C100.439 89.3635 100.496 89.3553 100.549 89.3356C100.602 89.3158 100.651 89.285 100.691 89.2451C100.731 89.2051 100.763 89.1571 100.783 89.1042C100.803 89.0512 100.812 88.9946 100.808 88.9381C100.799 88.8314 100.811 88.7239 100.846 88.6223C100.88 88.5208 100.935 88.4273 101.006 88.3477C101.078 88.2682 101.166 88.2042 101.264 88.1598C101.362 88.1155 101.468 88.0916 101.575 88.0898C102.169 88.0898 102.424 88.5139 102.424 89.0218C102.444 89.6042 102.264 90.1761 101.914 90.6427C100.13 93.5198 97.6658 94.965 95.5403 94.965C93.6724 94.965 92.5581 93.8655 92.5581 92.7661C92.5581 91.7503 93.1546 90.9047 94.1848 90.9047C94.8625 90.9047 95.2882 91.3262 95.2882 91.9178C95.2882 92.4257 94.8625 92.4257 94.8625 92.6796C94.8625 92.8498 95.0333 92.9335 95.2041 92.9335C95.7138 92.9335 96.0554 92.3419 96.0554 91.7503C96.0554 90.8183 95.2882 90.1294 94.1848 90.1294C93.7377 90.1272 93.2994 90.2534 92.9225 90.493C92.5455 90.7325 92.2458 91.0753 92.0593 91.4802C91.8732 91.0755 91.574 90.7329 91.1975 90.4933C90.821 90.2537 90.3832 90.1274 89.9365 90.1294C88.8304 90.1294 88.0659 90.8075 88.0659 91.7503C88.0659 92.3419 88.4075 92.9335 88.9172 92.9335C89.0852 92.9335 89.256 92.8498 89.256 92.6796C89.256 92.4257 88.8304 92.4257 88.8304 91.9178C88.8304 91.3262 89.256 90.9047 89.9365 90.9047C90.9559 90.9047 91.5496 91.7503 91.5496 92.7661C91.5496 93.8655 90.4435 94.965 88.5674 94.965C86.4447 94.965 83.9803 93.5279 82.1937 90.6427C81.7708 89.9646 81.684 89.6269 81.684 89.0218C81.684 88.5139 81.9388 88.0898 82.5353 88.0898C82.6427 88.0916 82.7485 88.1154 82.8462 88.1598C82.9439 88.2042 83.0314 88.2683 83.1031 88.3479C83.1749 88.4275 83.2294 88.521 83.2632 88.6225C83.2971 88.7241 83.3095 88.8315 83.2998 88.9381C83.2966 88.9945 83.3055 89.0509 83.3258 89.1037C83.3461 89.1564 83.3774 89.2043 83.4176 89.2441C83.4578 89.2839 83.506 89.3148 83.5591 89.3347C83.6122 89.3546 83.6689 89.363 83.7254 89.3595C83.826 89.3473 83.9177 89.2963 83.9811 89.2176C84.0444 89.1388 84.0743 89.0385 84.0643 88.9381C84.0643 88.0061 83.4706 87.3172 82.5353 87.3172C82.1803 87.3004 81.831 87.4108 81.5506 87.6283C81.2701 87.8458 81.077 88.1561 81.0062 88.5031C79.4745 85.8017 78.6259 84.5266 76.9396 84.5266L75.6654 82.5788C77.6201 81.9034 78.9811 80.3798 78.9811 78.0106C78.9919 77.1932 78.785 76.3876 78.3816 75.6758C77.9783 74.964 77.3928 74.3714 76.6848 73.9584C76.2619 73.7045 75.7495 73.4505 75.7495 72.8589C75.7414 72.779 75.7512 72.6983 75.7784 72.6226C75.8055 72.547 75.8493 72.4784 75.9064 72.4217C75.9635 72.365 76.0326 72.3218 76.1087 72.295C76.1847 72.2683 76.2657 72.2589 76.3459 72.2673C76.7715 72.2673 76.8556 72.5185 77.1104 72.5185C77.1448 72.5234 77.1798 72.5203 77.2128 72.5095C77.2458 72.4986 77.2758 72.4803 77.3004 72.4559C77.3251 72.4316 77.3438 72.4019 77.3551 72.3692C77.3663 72.3365 77.3698 72.3016 77.3653 72.2673C77.3653 71.8432 76.7715 71.5028 76.1751 71.5028C76.0177 71.4987 75.8611 71.5266 75.7148 71.5847C75.5686 71.6429 75.4357 71.7301 75.3244 71.841C75.2131 71.952 75.1255 72.0844 75.0672 72.2301C75.0088 72.3758 74.9808 72.5319 74.9849 72.6887C74.9824 72.9524 75.0408 73.2131 75.1557 73.4505H74.8765C73.7731 73.4505 73.0086 74.1286 73.0086 74.9742C73.0086 75.6522 73.2634 75.9062 73.5182 75.9062C73.9412 75.9062 73.7731 75.5658 73.7731 75.1444C73.7731 74.4663 74.3668 74.2124 75.0473 74.2124C76.7471 74.2124 78.1894 75.9062 78.1894 78.0214C78.1894 80.5608 76.2375 82.2519 73.2634 82.2519C69.7797 82.2519 67.1445 79.7126 67.1445 76.1574C67.1445 72.6887 69.1832 70.3195 71.4822 68.2043L73.4369 66.3403C75.9013 64.0575 76.9206 61.6856 76.9206 58.7248C76.9206 55.5101 74.966 51.9549 70.8885 50.1774C71.7371 49.9234 72.244 49.0779 72.244 48.0621C72.244 47.3841 71.9892 46.9626 71.9892 46.4547C71.9892 45.439 72.5856 44.8339 73.4342 44.8339C73.7608 44.8237 74.0781 44.9427 74.3169 45.1649C74.5556 45.3871 74.6964 45.6945 74.7084 46.0198C74.7146 46.1436 74.6947 46.2673 74.6501 46.383C74.6054 46.4987 74.537 46.6038 74.4492 46.6916C74.3614 46.7793 74.2561 46.8478 74.1401 46.8926C74.0241 46.9375 73.9001 46.9576 73.7758 46.9518C73.521 46.9518 73.3502 46.9518 73.3502 47.2058C73.3502 47.4597 73.605 47.5434 73.9439 47.5434C74.3108 47.556 74.6695 47.4335 74.9515 47.1993C75.2336 46.9651 75.4192 46.6356 75.4729 46.2738C75.6542 46.3796 75.8593 46.4382 76.0694 46.4439C76.2047 46.4493 76.3396 46.4266 76.4657 46.3775C76.5918 46.3283 76.7063 46.2537 76.802 46.1583C76.8978 46.0629 76.9727 45.9488 77.022 45.8231C77.0714 45.6975 77.0941 45.563 77.0887 45.4282C77.0887 45.258 77.0047 45.0041 76.7498 45.0041C76.5791 45.0041 76.495 45.1743 76.495 45.3417C76.4981 45.3983 76.4893 45.4548 76.469 45.5077C76.4487 45.5606 76.4175 45.6086 76.3773 45.6486C76.3371 45.6886 76.289 45.7198 76.2359 45.74C76.1828 45.7602 76.1261 45.769 76.0694 45.7659C75.8987 45.7498 75.7362 45.6856 75.6008 45.5808C75.4654 45.476 75.3628 45.335 75.3048 45.1743C75.1168 44.8437 74.8452 44.568 74.517 44.3746C74.1888 44.1813 73.8155 44.0769 73.4342 44.0721C72.9247 44.0633 72.4292 44.2384 72.0391 44.5651C71.6489 44.8918 71.3905 45.348 71.3114 45.8496C70.7278 45.2615 70.0709 44.7503 69.3568 44.3287C70.0372 43.9046 70.631 43.5669 71.3114 43.0563C72.3884 42.2511 73.3868 41.3466 74.2936 40.3548L78.9675 35.2761C83.0341 30.7916 85.6801 29.6921 88.2285 29.6921C90.4354 29.6921 91.5415 30.7916 91.5415 32.0613C91.5415 32.9933 91.1402 33.6822 90.5031 34.0226C90.1173 33.6202 89.8581 33.114 89.7576 32.5665C89.6735 32.1478 89.5868 32.1478 89.5027 32.1478C89.332 32.1478 89.3319 32.3153 89.3319 32.4854C89.3133 33.1032 89.4723 33.7134 89.7901 34.2441C89.6947 34.255 89.5988 34.2604 89.5027 34.2603C88.6542 34.2603 88.1472 33.8389 88.1472 33.331C88.1429 33.2522 88.1559 33.1733 88.1854 33.1001C88.2149 33.0268 88.2602 32.9608 88.318 32.9069C88.4888 32.7394 88.4048 32.6556 88.318 32.6556C87.9791 32.6556 87.6375 33.0771 87.6375 33.5849C87.6375 34.1766 88.1472 35.0221 89.5922 35.0221C89.8678 35.0235 90.142 34.9834 90.4055 34.9033C90.8869 35.2559 91.4687 35.4461 92.0661 35.4461C92.6635 35.4461 93.2453 35.2559 93.7266 34.9033C93.9901 34.9838 94.2643 35.0239 94.5399 35.0221C95.9849 35.0221 96.4946 34.1766 96.4946 33.5849C96.4946 33.0771 96.1557 32.6556 95.8141 32.6556C95.7301 32.6556 95.6433 32.7394 95.8141 32.9069C95.872 32.9608 95.9172 33.0268 95.9467 33.1001C95.9763 33.1733 95.9893 33.2522 95.9849 33.331C95.9849 33.8389 95.4752 34.2603 94.6294 34.2603C94.5334 34.2604 94.4374 34.255 94.342 34.2441C94.6599 33.7134 94.8188 33.1032 94.8002 32.4854C94.8002 32.3153 94.8002 32.1478 94.6294 32.1478C94.5453 32.1478 94.4613 32.1478 94.3773 32.5665C94.2769 33.1146 94.0166 33.6211 93.629 34.0226C92.9919 33.6822 92.5907 32.9933 92.5907 32.0613C92.5907 30.7916 93.6968 29.6921 95.9063 29.6921C98.4547 29.6921 101.09 30.7916 105.167 35.2761L109.841 40.3548C110.727 41.3671 111.728 42.2736 112.823 43.0563C113.501 43.5669 114.098 43.9046 114.778 44.3287C114.063 44.7496 113.406 45.2608 112.823 45.8496C112.744 45.3478 112.485 44.8915 112.094 44.5649C111.704 44.2382 111.208 44.0632 110.698 44.0721C110.317 44.0775 109.944 44.182 109.616 44.3753C109.287 44.5687 109.016 44.8441 108.827 45.1743C108.769 45.335 108.667 45.476 108.531 45.5808C108.396 45.6856 108.233 45.7498 108.063 45.7659C108.006 45.769 107.95 45.7602 107.897 45.74C107.844 45.7197 107.796 45.6886 107.756 45.6485C107.716 45.6084 107.685 45.5604 107.665 45.5075C107.645 45.4546 107.636 45.3981 107.64 45.3417C107.64 45.1743 107.553 45.0041 107.385 45.0041C107.13 45.0041 107.046 45.258 107.046 45.4282C107.041 45.5628 107.063 45.697 107.113 45.8225C107.162 45.9479 107.236 46.0619 107.332 46.1573C107.427 46.2526 107.542 46.3273 107.667 46.3766C107.793 46.426 107.928 46.4489 108.063 46.4439C108.273 46.4385 108.478 46.38 108.659 46.2738C108.713 46.6356 108.899 46.9651 109.181 47.1993C109.463 47.4335 109.821 47.556 110.188 47.5434C110.527 47.5434 110.782 47.4597 110.782 47.2058C110.782 46.9518 110.614 46.9518 110.359 46.9518C110.233 46.965 110.106 46.9499 109.986 46.9077C109.867 46.8655 109.758 46.7973 109.668 46.708C109.579 46.6187 109.51 46.5105 109.468 46.3915C109.426 46.2724 109.411 46.1454 109.424 46.0198C109.436 45.6945 109.577 45.3871 109.815 45.1649C110.054 44.9427 110.371 44.8237 110.698 44.8339C111.549 44.8339 112.143 45.4282 112.143 46.4547C112.143 46.9626 111.888 47.3841 111.888 48.0621C111.888 49.0779 112.398 49.9234 113.244 50.1774C109.177 51.9549 107.211 55.5101 107.211 58.7248C107.211 61.6964 108.231 64.0575 110.695 66.3403L112.65 68.2043C114.943 70.3195 116.988 72.6887 116.988 76.1574C116.988 79.7126 114.352 82.2519 110.869 82.2519H110.825ZM92.0891 97.9934C91.6025 97.0507 91.0036 96.17 90.3052 95.3703C91.0816 95.0701 91.7177 94.4921 92.0891 93.7494C92.4612 94.4916 93.0971 95.0694 93.873 95.3703C93.1756 96.1707 92.5767 97.0513 92.0891 97.9934ZM92.9485 34.5088C92.6779 34.6283 92.3851 34.69 92.0891 34.69C91.7931 34.69 91.5004 34.6283 91.2297 34.5088C91.615 34.2117 91.9121 33.8158 92.0891 33.3634C92.268 33.8147 92.5648 34.2102 92.9485 34.5088ZM118.346 72.5185C118.125 72.5085 117.906 72.5585 117.711 72.6632C117.517 72.7679 117.355 72.9233 117.242 73.1129C116.562 71.5892 115.887 70.1412 112.905 67.4398C113.291 67.5553 113.692 67.6118 114.095 67.6073C115.03 67.6073 116.05 67.3533 116.643 66.7617C116.72 67.0368 116.888 67.2782 117.119 67.4472C117.35 67.6162 117.631 67.703 117.918 67.6937C118.853 67.6937 119.192 67.1021 119.192 66.424C119.192 66.1701 119.108 65.9161 118.853 65.9161C118.343 65.9161 118.769 66.9319 117.918 66.9319C117.832 66.9306 117.748 66.9115 117.671 66.8758C117.594 66.8401 117.525 66.7886 117.469 66.7247C117.413 66.6607 117.371 66.5858 117.346 66.5046C117.321 66.4235 117.314 66.3381 117.324 66.2538C117.324 65.8324 117.579 65.3245 117.579 64.7302C117.604 64.1579 117.432 63.5943 117.092 63.1325C116.752 62.6708 116.263 62.3386 115.708 62.1908C115.45 62.1405 115.217 62.0042 115.048 61.8043C114.878 61.6044 114.782 61.3529 114.775 61.0913C114.775 60.4159 115.285 60.3295 115.624 60.3295C115.963 60.3295 116.218 60.416 116.218 60.1593C116.218 59.9027 115.963 59.7379 115.453 59.7379C114.859 59.7379 114.008 60.1593 114.008 61.0886C114.004 61.2782 114.039 61.4666 114.112 61.6417C114.186 61.8167 114.295 61.9743 114.434 62.1044C114.032 62.1733 113.667 62.3807 113.403 62.6902C113.139 62.9998 112.992 63.3919 112.989 63.7982C112.989 64.3898 113.16 64.9814 113.585 64.9814C114.095 64.9814 113.669 64.5573 113.669 63.8819C113.669 63.1201 114.35 62.7824 115.025 62.7824C115.957 62.7824 116.809 63.628 116.809 64.7275C116.809 65.9972 115.789 66.8427 114.174 66.8427C113.535 66.8734 112.897 66.7601 112.309 66.5112C111.72 66.2624 111.196 65.8845 110.774 65.4056C108.99 63.4578 107.971 61.7667 107.971 58.7194C107.971 54.8266 110.774 51.4417 114.854 50.3449C115.296 50.218 115.684 49.951 115.96 49.5844C116.236 49.2178 116.385 48.7716 116.383 48.3134C116.383 47.4678 115.873 46.7897 115.028 46.7897C114.686 46.7897 114.431 46.8735 114.431 47.1274C114.431 47.3814 114.686 47.3814 114.857 47.3814C115.081 47.4072 115.286 47.519 115.429 47.693C115.571 47.867 115.64 48.0895 115.621 48.3134C115.622 48.4985 115.584 48.6817 115.51 48.8517C115.437 49.0217 115.329 49.1748 115.193 49.3014C115.058 49.4281 114.897 49.5257 114.722 49.588C114.548 49.6504 114.362 49.6763 114.176 49.6641C113.241 49.6641 112.647 48.9887 112.647 48.0432C112.647 46.2656 114.773 45.0716 116.386 44.3206C114.941 43.6425 114.431 43.3886 113.328 42.543C113.212 42.4351 113.121 42.3032 113.062 42.1567C113.003 42.0101 112.977 41.8524 112.986 41.6948C112.986 41.2733 113.241 40.9329 113.583 40.9329C113.639 40.9298 113.696 40.9386 113.749 40.9588C113.802 40.9791 113.85 41.0103 113.89 41.0503C113.93 41.0904 113.961 41.1385 113.981 41.1913C114 41.2442 114.009 41.3007 114.005 41.3571C114.005 41.611 113.837 41.611 113.837 41.7785C113.832 41.813 113.836 41.8482 113.847 41.8813C113.858 41.9144 113.876 41.9444 113.901 41.9691C113.926 41.9937 113.956 42.0123 113.989 42.0233C114.022 42.0343 114.058 42.0374 114.092 42.0324C114.263 42.0324 114.686 41.865 114.686 41.1869C114.689 41.0454 114.662 40.9049 114.606 40.7747C114.551 40.6445 114.468 40.5275 114.364 40.4314C114.259 40.3354 114.136 40.2626 114.001 40.2177C113.867 40.1728 113.724 40.1569 113.583 40.1711C113.397 40.1707 113.213 40.2084 113.042 40.2818C112.872 40.3552 112.718 40.4627 112.591 40.5977C112.464 40.7328 112.366 40.8924 112.303 41.0667C112.241 41.241 112.215 41.4263 112.227 41.611C111.562 41.0638 110.938 40.4698 110.359 39.8334L107.648 36.8618C106.883 36.0163 107.306 34.4089 108.412 34.4089C108.52 34.4 108.627 34.4131 108.729 34.4473C108.831 34.4814 108.924 34.536 109.004 34.6077C109.084 34.6793 109.148 34.7665 109.193 34.8638C109.237 34.9611 109.262 35.0664 109.264 35.1734C109.264 35.9352 108.497 35.5921 108.497 36.0163C108.492 36.0618 108.497 36.1077 108.513 36.1508C108.528 36.1939 108.553 36.233 108.585 36.2653C108.618 36.2977 108.657 36.3224 108.7 36.3377C108.744 36.3531 108.79 36.3586 108.835 36.354C108.999 36.356 109.162 36.3239 109.312 36.2599C109.463 36.1958 109.599 36.1012 109.711 35.982C109.823 35.8628 109.909 35.7216 109.963 35.5675C110.017 35.4134 110.038 35.2497 110.026 35.087C110.003 34.6829 109.821 34.3043 109.518 34.0342C109.216 33.7642 108.818 33.625 108.412 33.6471C107.306 33.6471 106.545 34.4926 106.545 35.6786L105.693 34.7466C101.955 30.6944 98.8966 28.9087 95.9334 28.9087C94.9744 28.893 94.0318 29.1579 93.2223 29.6705C92.8179 29.1894 92.4482 28.6803 92.1162 28.1469C91.7853 28.6803 91.4165 29.1894 91.0128 29.6705C90.203 29.1586 89.2606 28.8938 88.3017 28.9087C85.3196 28.9087 82.2669 30.6863 78.5419 34.7466L77.6906 35.6786C77.6906 34.4926 76.9261 33.6471 75.82 33.6471C75.4146 33.6257 75.0173 33.7652 74.715 34.0351C74.4127 34.3049 74.23 34.6832 74.2069 35.087C74.194 35.2497 74.2154 35.4134 74.2696 35.5675C74.3238 35.7216 74.4096 35.8628 74.5216 35.982C74.6336 36.1012 74.7692 36.1958 74.92 36.2599C75.0707 36.3239 75.2332 36.356 75.397 36.354C75.4427 36.3586 75.4888 36.3531 75.532 36.3377C75.5753 36.3224 75.6145 36.2977 75.647 36.2653C75.6794 36.233 75.7043 36.1939 75.7196 36.1508C75.735 36.1077 75.7406 36.0618 75.7359 36.0163C75.7359 35.5921 74.9714 35.9352 74.9714 35.1734C74.9732 35.0666 74.9971 34.9612 75.0415 34.8639C75.0858 34.7667 75.1497 34.6795 75.2293 34.6078C75.3088 34.5361 75.4023 34.4815 75.5039 34.4473C75.6055 34.4131 75.7131 34.4 75.82 34.4089C76.9261 34.4089 77.349 36.0298 76.5872 36.8618L73.8761 39.8334C73.2961 40.4698 72.6709 41.0639 72.0055 41.611C72.0177 41.4263 71.9917 41.241 71.9291 41.0667C71.8665 40.8924 71.7686 40.7328 71.6415 40.5977C71.5144 40.4627 71.3608 40.3552 71.1902 40.2818C71.0196 40.2084 70.8357 40.1707 70.6499 40.1711C70.5085 40.157 70.3657 40.1729 70.2309 40.2177C70.0961 40.2626 69.9723 40.3354 69.8678 40.4314C69.7633 40.5273 69.6804 40.6443 69.6246 40.7745C69.5687 40.9047 69.5412 41.0453 69.5438 41.1869C69.5438 41.865 69.9694 42.0324 70.1402 42.0324C70.1747 42.037 70.2097 42.0335 70.2425 42.0223C70.2754 42.0111 70.3052 41.9924 70.3296 41.9678C70.354 41.9432 70.3724 41.9134 70.3833 41.8805C70.3942 41.8477 70.3973 41.8128 70.3924 41.7785C70.3924 41.611 70.2243 41.611 70.2243 41.3571C70.2207 41.3005 70.2293 41.2437 70.2494 41.1906C70.2695 41.1376 70.3008 41.0894 70.341 41.0493C70.3813 41.0091 70.4297 40.978 70.4829 40.958C70.5362 40.9379 70.5931 40.9294 70.6499 40.9329C70.9888 40.9329 71.2437 41.2733 71.2437 41.6948C71.2527 41.8522 71.2271 42.0098 71.1685 42.1563C71.11 42.3028 71.02 42.4348 70.9048 42.543C69.8854 43.5588 69.2781 43.6425 67.844 44.3206C69.4706 45.0797 71.5825 46.2656 71.5825 48.0432C71.5825 48.9752 70.9888 49.6641 70.0535 49.6641C69.8681 49.6763 69.6822 49.6504 69.5072 49.588C69.3323 49.5257 69.1721 49.4281 69.0366 49.3014C68.9011 49.1748 68.7932 49.0217 68.7195 48.8517C68.6459 48.6817 68.6081 48.4985 68.6085 48.3134C68.5894 48.0895 68.6585 47.867 68.8012 47.693C68.9439 47.519 69.149 47.4072 69.373 47.3814C69.5438 47.3814 69.7986 47.3814 69.7986 47.1274C69.7986 46.8735 69.5438 46.7897 69.2049 46.7897C68.3536 46.7897 67.8494 47.4678 67.8494 48.3134C67.8479 48.7716 67.9964 49.2178 68.2723 49.5844C68.5482 49.951 68.9366 50.218 69.3784 50.3449C73.4586 51.5308 76.2619 54.8293 76.2619 58.7194C76.2619 61.7667 75.1584 63.3741 73.4586 65.4056C73.0369 65.8845 72.5122 66.2624 71.9236 66.5112C71.3349 66.7601 70.6976 66.8734 70.0589 66.8427C68.4458 66.8427 67.4265 65.9972 67.4265 64.7275C67.4265 63.628 68.275 62.7824 69.2104 62.7824C69.8908 62.7824 70.5659 63.1201 70.5659 63.8819C70.5659 64.5573 70.143 64.9814 70.6526 64.9814C71.0756 64.9814 71.2464 64.3898 71.2464 63.7982C71.2428 63.3919 71.0961 62.9998 70.832 62.6902C70.5679 62.3807 70.2032 62.1733 69.8014 62.1044C69.9407 61.975 70.0508 61.8174 70.1242 61.6423C70.1976 61.4671 70.2326 61.2784 70.227 61.0886C70.227 60.1566 69.3757 59.7379 68.782 59.7379C68.2723 59.7379 68.0175 59.9081 68.0175 60.1593C68.0175 60.4105 68.2723 60.3295 68.6112 60.3295C68.9501 60.3295 69.4625 60.4159 69.4625 61.0913C69.455 61.3532 69.3584 61.6047 69.1884 61.8046C69.0184 62.0044 68.7852 62.1406 68.5272 62.1908C67.9723 62.3391 67.4847 62.6715 67.1451 63.1332C66.8055 63.5949 66.6341 64.1583 66.6592 64.7302C66.6592 65.3245 66.9114 65.8324 66.9114 66.2538C66.9221 66.3381 66.9148 66.4238 66.8899 66.5051C66.865 66.5864 66.8232 66.6615 66.7671 66.7256C66.711 66.7896 66.642 66.8411 66.5645 66.8767C66.4871 66.9122 66.4029 66.931 66.3176 66.9319C65.4691 66.9319 65.8947 65.9161 65.3823 65.9161C65.1275 65.9161 65.0434 66.1701 65.0434 66.424C65.0434 67.1021 65.3823 67.6937 66.3176 67.6937C66.6042 67.7035 66.8857 67.6168 67.1168 67.4478C67.348 67.2787 67.5153 67.037 67.5918 66.7617C68.1883 67.3533 69.2185 67.6073 70.143 67.6073C70.545 67.6118 70.9454 67.5553 71.3304 67.4398C68.3482 70.1412 67.6759 71.5865 66.9927 73.1129C66.8798 72.9237 66.7176 72.7686 66.5233 72.664C66.329 72.5593 66.1099 72.5091 65.8893 72.5185C65.038 72.5185 64.6124 73.0291 64.6124 73.7909C64.6124 73.9584 64.6124 74.4663 65.038 74.4663C65.3769 74.4663 65.2088 74.1286 65.2088 73.8747C65.2097 73.7897 65.2285 73.7058 65.2642 73.6286C65.2999 73.5515 65.3516 73.4827 65.4159 73.4268C65.4801 73.3709 65.5555 73.3292 65.6371 73.3044C65.7187 73.2797 65.8047 73.2724 65.8893 73.2831C66.5671 73.2831 66.7379 73.8747 66.5671 74.8067C66.4972 75.2534 66.4691 75.7056 66.483 76.1574C66.483 80.1367 69.4652 83.0164 73.3664 83.0164C73.9356 83.0003 74.5029 82.9425 75.0636 82.8436L76.2537 84.6238C75.845 84.7388 75.484 84.9813 75.2239 85.3159C74.9638 85.6505 74.8183 86.0593 74.8087 86.4824C74.802 86.9836 74.9928 87.4674 75.34 87.83C75.6871 88.1926 76.1631 88.4052 76.6658 88.4221C77.3463 88.4221 77.856 88.0817 77.856 87.744C77.8601 87.6986 77.8542 87.6529 77.8387 87.61C77.8231 87.5672 77.7983 87.5283 77.7659 87.496C77.7336 87.4638 77.6946 87.4391 77.6515 87.4236C77.6085 87.4081 77.5626 87.4022 77.5171 87.4063C77.2595 87.4063 77.2595 87.6603 76.6658 87.6603C76.5085 87.664 76.3521 87.6358 76.206 87.5775C76.0599 87.5192 75.9272 87.432 75.816 87.3212C75.7047 87.2103 75.6172 87.0781 75.5587 86.9325C75.5002 86.787 75.4719 86.6311 75.4756 86.4743C75.4756 85.799 76.0721 85.2911 76.9206 85.2911C78.5473 85.2911 79.301 87.1524 80.4044 89.0137L81.5105 90.8777C83.2944 93.9223 86.1844 95.6999 88.5593 95.6999C88.9012 95.7138 89.2436 95.6856 89.5787 95.6161C90.598 96.6319 91.6201 98.4932 92.043 99.3387C92.4687 98.4932 93.488 96.6373 94.5074 95.6161C94.8425 95.6855 95.1848 95.7136 95.5268 95.6999C97.9071 95.6999 100.794 93.9223 102.576 90.8777L103.682 89.0137C104.785 87.1524 105.55 85.2911 107.165 85.2911C108.014 85.2911 108.61 85.799 108.61 86.4743C108.614 86.6311 108.586 86.787 108.527 86.9325C108.469 87.0781 108.381 87.2103 108.27 87.3212C108.159 87.432 108.026 87.5192 107.88 87.5775C107.734 87.6358 107.578 87.664 107.42 87.6603C106.827 87.6603 106.827 87.4063 106.572 87.4063C106.526 87.4018 106.48 87.4073 106.436 87.4226C106.393 87.438 106.354 87.4626 106.321 87.4949C106.288 87.5272 106.263 87.5662 106.248 87.6093C106.232 87.6524 106.226 87.6984 106.23 87.744C106.23 88.0817 106.74 88.4221 107.42 88.4221C107.678 88.4265 107.934 88.3791 108.173 88.2828C108.413 88.1864 108.63 88.0431 108.812 87.8614C108.995 87.6796 109.138 87.4632 109.235 87.2249C109.332 86.9866 109.379 86.7313 109.375 86.4743C109.365 86.0512 109.22 85.6424 108.96 85.3078C108.7 84.9732 108.339 84.7307 107.93 84.6157L109.12 82.8355C109.682 82.9346 110.25 82.9924 110.82 83.0083C114.729 83.0191 117.711 80.1367 117.711 76.1574C117.725 75.7056 117.697 75.2534 117.627 74.8067C117.459 73.8747 117.627 73.2831 118.308 73.2831C118.393 73.2724 118.478 73.2797 118.56 73.3044C118.642 73.3292 118.717 73.3709 118.781 73.4268C118.846 73.4827 118.897 73.5515 118.933 73.6286C118.969 73.7058 118.988 73.7897 118.988 73.8747C118.988 74.1286 118.818 74.4663 119.156 74.4663C119.582 74.4663 119.582 73.9584 119.582 73.7909C119.582 73.0291 119.156 72.5185 118.308 72.5185H118.346ZM116.085 87.0714C112.346 90.8804 106.824 93.5873 101.556 96.1267C98.0697 97.8205 94.6728 99.5116 92.0376 101.53C89.4051 99.4981 86.0055 97.807 82.5217 96.1267C77.2514 93.5873 71.7289 90.8804 67.9931 87.0714C63.2324 82.2465 60.9443 77.3461 60.9443 71.754C60.9443 67.0129 62.8149 63.0364 67.0632 57.7064C67.4021 57.2795 67.7409 56.8581 67.7409 56.5177C67.7409 56.1773 67.4021 55.5047 67.2313 55.167L64.2491 48.7321C63.5713 47.2949 62.8935 45.9415 62.8935 44.5016C62.8935 43.3183 63.6581 42.4701 64.6774 41.6245L68.9257 37.8181C68.9994 37.7398 69.0471 37.6406 69.0621 37.5342C69.0772 37.4279 69.0589 37.3194 69.0097 37.2238L67.6542 34.4305C67.4834 34.0928 67.4834 33.8389 67.7382 33.6687C71.9025 30.8781 75.3862 30.0298 80.399 28.6764C85.1569 27.4067 89.4079 26.3072 92.0403 24.6242C94.6755 26.318 98.9237 27.4175 103.682 28.6764C108.694 30.0271 112.086 31.0456 116.342 33.6687C116.597 33.8389 116.597 34.0928 116.426 34.4305L115.071 37.2238C115.024 37.3201 115.008 37.4279 115.022 37.5337C115.037 37.6395 115.084 37.7385 115.155 37.8181L119.406 41.6245C120.423 42.4701 121.187 43.3183 121.187 44.5016C121.187 45.9415 120.509 47.2949 119.832 48.7321L116.849 55.167C116.681 55.5047 116.34 56.1827 116.34 56.5177C116.34 56.8527 116.681 57.2795 117.02 57.7064C121.607 62.7824 123.139 67.0129 123.139 71.754C123.139 77.338 120.843 82.2465 116.09 87.0714H116.085ZM120.084 57.9603C119.319 57.0283 118.896 56.6096 118.896 56.2638C118.896 55.918 119.148 55.4209 119.406 54.8266L121.954 49.2427C122.719 47.5488 123.397 46.109 123.397 44.3341C123.397 43.0617 122.887 41.792 121.613 40.6925L117.958 37.5642C117.812 37.4432 117.714 37.2735 117.683 37.0863C117.652 36.8991 117.69 36.7072 117.79 36.5458L119.146 33.5012C119.2 33.3997 119.213 33.2811 119.182 33.1703C119.15 33.0596 119.077 32.9652 118.978 32.9069C114.813 30.1163 110.055 28.4224 105.55 27.1527C101.049 25.9695 95.0144 24.2757 92.0403 21.9902C89.0581 24.2757 83.0341 25.8831 78.531 27.1527C74.0279 28.4224 69.2673 30.1244 65.1058 32.9069C65.0062 32.9652 64.933 33.0594 64.9012 33.17C64.8694 33.2806 64.8815 33.3992 64.935 33.5012L66.2905 36.5458C66.3891 36.7078 66.4261 36.8997 66.3947 37.0866C66.3634 37.2734 66.2658 37.4429 66.1197 37.5642L62.4652 40.6925C61.191 41.792 60.6813 43.0617 60.6813 44.3341C60.6813 46.109 61.3618 47.5488 62.1263 49.2427L64.6747 54.8266C64.9296 55.4209 65.1844 55.9261 65.1844 56.2638C65.1844 56.6015 64.7588 57.0283 63.9942 57.9603C60.1716 62.696 58.6426 66.5888 58.6426 71.754C58.6426 78.948 62.2104 84.4509 66.2905 88.595C70.452 92.8255 76.232 95.6188 81.4997 98.1582C84.9834 99.852 88.6379 101.543 92.0349 104.253C95.4346 101.551 99.0837 99.852 102.57 98.1582C107.84 95.6188 113.705 92.8255 117.782 88.595C121.849 84.4455 125.43 78.948 125.43 71.754C125.43 66.5888 123.901 62.696 120.076 57.9603" fill="white"/>
<path d="M97.9206 73.9692C97.5044 74.9407 96.8243 75.777 95.9569 76.3841C95.0895 76.9912 94.0692 77.345 93.0109 77.4055C89.0473 77.7324 88.9876 73.0426 88.9876 73.0426V61.5965H89.1042C90.3786 61.462 91.667 61.572 92.8997 61.9207C96.4729 62.9283 99.0295 66.1404 98.8993 69.8333C98.8455 71.2621 98.5131 72.6669 97.9206 73.9692ZM88.9876 45.8739C88.9876 45.8739 89.8362 43.6641 92.9756 43.8992C96.1151 44.1342 97.8393 46.7141 97.9206 49.2508C98.002 51.7875 98.6824 57.3552 92.2274 59.6055H88.9958L88.9876 45.8739ZM100.686 66.6482C100.364 65.4275 99.8191 64.2763 99.0783 63.2525C97.4055 61.0049 95.4698 60.2809 95.3885 60.2431C95.8466 59.987 96.286 59.699 96.7034 59.3813C98.0533 58.3566 99.0691 56.9571 99.6232 55.3588C100.432 53.0789 100.537 50.6099 99.9241 48.2701C98.5252 43.0563 94.7893 42.2756 94.7893 42.2756C94.7893 42.2756 90.4516 40.5574 87.4694 44.3314C87.4342 44.2774 85.813 41.7893 82.9419 43.0941C80.4559 44.4584 81.8846 46.606 82.4973 46.9923C82.4973 46.9923 83.3106 47.5326 83.777 46.9923C84.1185 46.5925 83.7607 46.1819 83.5818 45.8982C83.2239 45.339 83.8176 44.7231 84.6499 44.7339C85.3738 44.7339 86.8188 45.2742 86.8188 47.2301V73.6775C86.8188 73.899 86.5938 75.2983 85.4009 75.2821C84.208 75.2659 83.7742 74.0097 84.4547 73.3371C84.4112 73.223 84.3383 73.1224 84.2433 73.0453C84.1185 72.9832 82.2777 72.9319 82.5028 74.8688C82.7278 76.8058 85.043 77.7351 87.2878 76.5221C87.8366 77.4808 88.634 78.2748 89.5965 78.8209C90.5591 79.367 91.6513 79.6451 92.7587 79.6261C96.6871 79.6261 99.1515 76.3438 99.1515 76.3438C99.1515 76.3438 102.304 72.532 100.697 66.6644" fill="white"/>
<path d="M84.208 71.5298C87.0762 73.6696 90.6032 74.7462 94.1821 74.5744C96.6081 74.4756 98.9571 73.6976 100.96 72.3294C106.764 68.2934 104.172 63.058 104.002 62.5852C104.002 62.5852 102.397 58.9491 98.4493 57.5929C98.4493 57.5929 95.4888 56.6015 90.7824 56.2611C86.076 55.9207 84.2297 53.9054 84.9481 51.4552C85.6666 49.0049 89.3292 47.8865 91.5957 47.7488C94.8214 47.5605 98.0204 48.4285 100.705 50.2206C101.174 50.594 101.61 51.008 102.006 51.4579C102.006 51.4579 102.651 52.3034 103.058 51.8631C103.405 51.4903 102.803 50.9635 102.803 50.9635C102.153 50.1761 101.766 49.2063 101.694 48.1891C101.63 47.4913 101.617 46.7897 101.656 46.09C101.686 45.8162 101.738 45.5452 101.811 45.2796C101.882 45.0419 101.936 44.7015 101.591 44.6421C101.307 44.5961 101.174 44.9122 101.147 44.9743C100.805 45.5415 100.293 45.9865 99.682 46.2456C99.0714 46.5048 98.3941 46.5647 97.7471 46.4169C93.9516 45.6065 91.5957 45.6335 91.5957 45.6335C91.5957 45.6335 87.1631 45.3201 84.1782 48.4971C83.5218 49.1773 83.036 50.0024 82.7604 50.9051C82.4848 51.8079 82.4272 52.7628 82.5922 53.692C83.2971 57.2471 86.9869 58.5546 90.7851 58.5114C92.2882 58.4955 93.7877 58.6624 95.2502 59.0085C96.0705 59.1942 96.8739 59.4472 97.6522 59.7649C98.6476 60.158 99.5419 60.7686 100.269 61.5517C100.996 62.3349 101.538 63.2705 101.854 64.2899C102.397 66.1809 102.199 68.7041 98.7502 70.7545C92.3846 74.5365 84.7231 71.0246 81.5132 63.5686C81.4515 63.4459 81.3436 63.3525 81.213 63.309C81.0824 63.2655 80.9398 63.2753 80.8165 63.3362C80.4098 63.5037 80.6348 64.0791 80.6348 64.0791C80.6348 64.0791 81.8277 66.2187 81.5973 67.9044C81.4129 69.0494 80.8057 70.0842 79.8947 70.8058C79.5667 71.1057 79.16 71.465 79.4772 71.7756C79.7944 72.0863 80.1251 71.9134 80.6023 71.5055L80.6213 71.492C81.1471 71.1221 81.7767 70.9271 82.4203 70.9349C83.0639 70.9426 83.6886 71.1527 84.2053 71.5352" fill="white"/>
<path d="M91.5984 46.036V77.1975C91.6093 78.3263 91.3608 79.4426 90.8718 80.4609C90.3296 81.5414 89.4377 82.6382 88.0117 82.6382C88.0117 82.6382 86.3416 82.7814 85.7913 81.7278C85.1461 80.4933 86.2305 80.0097 86.2305 80.0097C86.2305 80.0097 86.9842 79.6639 86.6236 79.0831C86.263 78.5023 85.4605 78.7995 85.4605 78.7995C85.0442 78.9662 84.6655 79.2141 84.3466 79.5286C84.0277 79.8431 83.775 80.2179 83.6035 80.6311C82.988 82.0601 83.9993 84.4482 86.7456 84.713C87.8244 84.82 88.9124 84.6401 89.8987 84.1916C90.885 83.7431 91.7343 83.0422 92.3602 82.1601C92.3602 82.1601 94.3664 84.5239 97.2808 84.9102C97.2808 84.9102 97.6306 84.9507 97.7309 84.8048C97.8312 84.6589 97.8556 84.4131 97.3866 84.0916C96.9175 83.7702 94.2227 82.2303 94.2336 79.5207V44.9987C94.2252 44.045 94.4595 43.1047 94.9146 42.2657C95.3698 41.4267 96.0309 40.7163 96.8362 40.2008L96.9067 40.1603C97.9896 39.5749 99.1392 39.1214 100.331 38.8096C100.331 38.8096 100.998 38.6934 101.079 38.3638C101.16 38.0343 100.962 37.8236 100.521 37.8776C99.6616 37.9433 98.8149 38.1204 98.002 38.4044C96.8037 38.8285 95.3532 39.6795 93.0299 39.6822C91.2378 39.6822 88.8331 39.0527 87.8246 38.7637C87.5718 38.6884 87.3237 38.5982 87.0818 38.4935C86.8459 38.3909 86.5206 38.2828 86.3145 38.4179C86.2126 38.4979 86.1456 38.614 86.1275 38.7421C86.1154 38.8447 86.1369 38.9484 86.1886 39.038C86.2404 39.1275 86.3197 39.198 86.4148 39.2391C87.1089 39.6768 87.3041 39.6362 87.9547 39.9739C88.7233 40.3624 89.4099 40.8944 89.9772 41.5408C91.0504 42.7983 91.6285 44.4016 91.6038 46.0522" fill="white"/>
<path d="M31.8827 150.576C32.1503 152.483 32.6764 153.907 33.461 154.851C34.8946 156.566 37.3533 157.423 40.837 157.423C42.9215 157.423 44.6146 157.198 45.9162 156.746C48.3876 155.878 49.6232 154.264 49.6232 151.906C49.6397 151.258 49.4793 150.617 49.1594 150.053C48.8396 149.49 48.3725 149.025 47.809 148.711C46.5996 147.973 44.6824 147.322 42.0573 146.758L37.572 145.769C33.1663 144.788 30.1381 143.722 28.4875 142.571C25.6944 140.648 24.2987 137.644 24.3005 133.558C24.3005 129.823 25.6655 126.72 28.3953 124.249C31.1252 121.778 35.1378 120.543 40.433 120.543C44.8496 120.543 48.619 121.708 51.7411 124.039C54.8633 126.37 56.4994 129.75 56.6495 134.18H48.3243C48.1688 131.673 47.0552 129.89 44.9834 128.832C43.5985 128.137 41.8811 127.788 39.831 127.786C37.544 127.786 35.719 128.242 34.3559 129.152C33.7129 129.546 33.1848 130.104 32.8253 130.77C32.4657 131.436 32.2874 132.185 32.3085 132.943C32.3085 134.432 32.981 135.545 34.326 136.281C35.1902 136.769 37.0252 137.344 39.831 138.007L47.1013 139.733C50.2885 140.487 52.6767 141.496 54.2658 142.759C56.7372 144.72 57.9719 147.559 57.9701 151.275C57.9701 155.086 56.5076 158.25 53.5825 160.767C50.6573 163.283 46.5219 164.536 41.176 164.525C35.7235 164.525 31.4335 163.285 28.3059 160.805C25.1783 158.325 23.6163 154.915 23.6199 150.576H31.8827Z" fill="white"/>
<path d="M79.4529 148.457C78.9616 148.766 78.4411 149.026 77.8991 149.232C77.199 149.476 76.4796 149.659 75.7486 149.779L73.9263 150.12C72.2161 150.42 70.9885 150.785 70.2437 151.213C68.9782 151.941 68.3454 153.082 68.3454 154.635C68.3454 156.011 68.7305 157.006 69.5007 157.62C70.3041 158.245 71.2979 158.571 72.3128 158.541C74.0435 158.546 75.7335 158.012 77.1506 157.011C78.6258 155.993 79.3915 154.136 79.4475 151.439L79.4529 148.457ZM74.5446 144.693C76.0334 144.505 77.1018 144.267 77.7418 143.986C78.8952 143.494 79.471 142.73 79.4692 141.694C79.4692 140.429 79.0281 139.555 78.1459 139.075C77.2636 138.594 75.9674 138.354 74.2571 138.354C72.3372 138.354 70.9813 138.825 70.1895 139.768C69.5676 140.593 69.1745 141.57 69.0505 142.598H61.3219C61.49 139.901 62.243 137.685 63.5808 135.95C65.7014 133.241 69.3488 131.886 74.5229 131.886C77.8946 131.886 80.8875 132.556 83.5016 133.896C86.1158 135.236 87.4229 137.764 87.4229 141.478V155.624C87.4229 156.605 87.4419 157.794 87.4798 159.191C87.5368 160.245 87.6941 160.963 87.9571 161.34C88.2618 161.751 88.6687 162.073 89.1367 162.274V163.462H80.4265C80.1987 162.896 80.0288 162.307 79.9194 161.706C79.8245 161.16 79.7512 160.537 79.6943 159.841C78.5726 161.056 77.2764 162.096 75.849 162.924C74.0522 163.937 72.0204 164.451 69.9617 164.413C67.1721 164.413 64.868 163.616 63.0493 162.023C61.2306 160.43 60.3213 158.171 60.3213 155.247C60.3213 151.456 61.7847 148.711 64.7116 147.012C66.3134 146.089 68.6727 145.429 71.7894 145.032L74.5446 144.693Z" fill="white"/>
<path d="M105.942 121.365C106.354 121.392 106.918 121.436 107.628 121.493V128.049C107.181 127.991 106.424 127.95 105.367 127.92C104.309 127.89 103.577 128.128 103.176 128.628C102.786 129.09 102.571 129.676 102.571 130.283V132.886H107.826V138.572H102.571V163.443H94.6173V138.58H90.1184V132.894H94.5034V130.914C94.5034 127.614 95.0566 125.338 96.163 124.085C97.3236 122.239 100.126 121.316 104.57 121.316C105.074 121.316 105.532 121.316 105.944 121.357" fill="white"/>
<path d="M126.909 131.886L127.598 131.927V140.189C127.091 140.132 126.644 140.093 126.242 140.077C125.841 140.061 125.529 140.047 125.285 140.047C122.063 140.047 119.899 141.103 118.793 143.215C118.175 144.404 117.865 146.234 117.865 148.705V163.454H109.809V132.613H117.453V137.988C118.695 135.923 119.768 134.517 120.672 133.771C122.18 132.514 124.132 131.886 126.53 131.886C126.656 131.885 126.783 131.89 126.909 131.902" fill="white"/>
<path d="M147.497 148.457C147.006 148.766 146.485 149.026 145.943 149.232C145.243 149.476 144.524 149.659 143.793 149.779L141.971 150.12C140.26 150.42 139.033 150.785 138.288 151.213C137.022 151.941 136.39 153.082 136.39 154.635C136.39 156.011 136.775 157.006 137.545 157.62C138.348 158.245 139.342 158.571 140.357 158.541C142.088 158.547 143.778 158.012 145.195 157.011C146.67 155.993 147.436 154.136 147.492 151.439L147.497 148.457ZM142.6 144.693C144.091 144.511 145.158 144.275 145.8 143.986C146.949 143.494 147.524 142.73 147.524 141.694C147.524 140.429 147.083 139.555 146.201 139.075C145.319 138.594 144.022 138.354 142.312 138.354C140.396 138.354 139.04 138.825 138.245 139.768C137.621 140.592 137.227 141.569 137.103 142.598H129.374C129.544 139.901 130.297 137.685 131.633 135.95C133.756 133.241 137.405 131.886 142.581 131.886C145.949 131.886 148.941 132.556 151.557 133.896C154.173 135.236 155.481 137.764 155.481 141.478V155.624C155.481 156.605 155.499 157.794 155.535 159.191C155.592 160.245 155.749 160.963 156.012 161.34C156.317 161.751 156.725 162.074 157.195 162.274V163.462H148.482C148.254 162.896 148.084 162.307 147.974 161.706C147.88 161.16 147.806 160.537 147.749 159.841C146.628 161.056 145.331 162.096 143.904 162.924C142.11 163.935 140.083 164.449 138.028 164.413C135.238 164.413 132.934 163.616 131.115 162.023C129.297 160.43 128.387 158.171 128.387 155.247C128.387 151.456 129.851 148.711 132.778 147.012C134.383 146.089 136.742 145.429 139.855 145.032L142.6 144.693Z" fill="white"/>
</svg>
